{
    "asset" : {
        "generator" : "Khronos glTF Blender I/O v1.0.5",
        "version" : "2.0"
    },
    "scene" : 0,
    "scenes" : [
        {
            "name" : "Scene",
            "nodes" : [
                0,
                1,
                2
            ]
        }
    ],
    "nodes" : [
        {
            "name" : "Light",
            "rotation" : [
                0.16907575726509094,
                0.27217137813568115,
                0.7558803558349609,
                0.570947527885437
            ],
            "translation" : [
                4.076245307922363,
                1.0054539442062378,
                5.903861999511719
            ]
        },
        {
            "camera" : 0,
            "name" : "Camera",
            "rotation" : [
                0.483536034822464,
                0.20870360732078552,
                0.33687159419059753,
                0.7804827094078064
            ],
            "translation" : [
                7.358891487121582,
                -6.925790786743164,
                4.958309173583984
            ]
        },
        {
            "mesh" : 0,
            "name" : "ESCAPE",
            "rotation" : [
                0.7071068286895752,
                0,
                0,
                0.7071067094802856
            ]
        }
    ],
    "cameras" : [
        {
            "name" : "Camera",
            "perspective" : {
                "yfov" : 0.39959652046304894,
                "zfar" : 100,
                "znear" : 0.10000000149011612
            },
            "type" : "perspective"
        }
    ],
    "materials" : [
        {
            "doubleSided" : true,
            "name" : "florr_blue",
            "normalTexture" : {
                "index" : 0,
                "texCoord" : 0
            },
            "pbrMetallicRoughness" : {
                "baseColorTexture" : {
                    "index" : 1,
                    "texCoord" : 0
                },
                "metallicFactor" : 0,
                "roughnessFactor" : 0
            }
        },
        {
            "doubleSided" : true,
            "name" : "ProBuilderDefault",
            "pbrMetallicRoughness" : {
                "metallicFactor" : 0,
                "roughnessFactor" : 0
            }
        },
        {
            "doubleSided" : true,
            "name" : "floor_dark",
            "normalTexture" : {
                "index" : 2,
                "texCoord" : 0
            },
            "pbrMetallicRoughness" : {
                "baseColorTexture" : {
                    "index" : 3,
                    "texCoord" : 0
                },
                "metallicFactor" : 0,
                "roughnessFactor" : 0
            }
        }
    ],
    "meshes" : [
        {
            "name" : "ESCAPE",
            "primitives" : [
                {
                    "attributes" : {
                        "POSITION" : 0,
                        "NORMAL" : 1,
                        "TEXCOORD_0" : 2
                    },
                    "indices" : 3,
                    "material" : 0
                },
                {
                    "attributes" : {
                        "POSITION" : 4,
                        "NORMAL" : 5,
                        "TEXCOORD_0" : 6
                    },
                    "indices" : 7,
                    "material" : 1
                },
                {
                    "attributes" : {
                        "POSITION" : 8,
                        "NORMAL" : 9,
                        "TEXCOORD_0" : 10
                    },
                    "indices" : 11,
                    "material" : 2
                }
            ]
        }
    ],
    "textures" : [
        {
            "source" : 0
        },
        {
            "source" : 1
        },
        {
            "source" : 0
        },
        {
            "source" : 2
        }
    ],
    "images" : [
        {
            "mimeType" : "image/png",
            "name" : "floor_normal",
            "uri" : "floor_normal.png"
        },
        {
            "mimeType" : "image/png",
            "name" : "floor_bluer",
            "uri" : "floor_bluer.png"
        },
        {
            "mimeType" : "image/png",
            "name" : "floor_darkblue",
            "uri" : "floor_darkblue.png"
        }
    ],
    "accessors" : [
        {
            "bufferView" : 0,
            "componentType" : 5126,
            "count" : 3148,
            "max" : [
                20.33300018310547,
                7.709000110626221,
                1.0128819942474365
            ],
            "min" : [
                -5.612847805023193,
                2.445452928543091,
                -9.555000305175781
            ],
            "type" : "VEC3"
        },
        {
            "bufferView" : 1,
            "componentType" : 5126,
            "count" : 3148,
            "type" : "VEC3"
        },
        {
            "bufferView" : 2,
            "componentType" : 5126,
            "count" : 3148,
            "type" : "VEC2"
        },
        {
            "bufferView" : 3,
            "componentType" : 5123,
            "count" : 14616,
            "type" : "SCALAR"
        },
        {
            "bufferView" : 4,
            "componentType" : 5126,
            "count" : 24,
            "max" : [
                15.20265007019043,
                2.777024984359741,
                -0.5154997706413269
            ],
            "min" : [
                14.20265007019043,
                1.7770249843597412,
                -1.5154999494552612
            ],
            "type" : "VEC3"
        },
        {
            "bufferView" : 5,
            "componentType" : 5126,
            "count" : 24,
            "type" : "VEC3"
        },
        {
            "bufferView" : 6,
            "componentType" : 5126,
            "count" : 24,
            "type" : "VEC2"
        },
        {
            "bufferView" : 7,
            "componentType" : 5123,
            "count" : 36,
            "type" : "SCALAR"
        },
        {
            "bufferView" : 8,
            "componentType" : 5126,
            "count" : 4762,
            "max" : [
                20.384010314941406,
                7.930008888244629,
                1.4524790048599243
            ],
            "min" : [
                -6.06148099899292,
                1.4275339841842651,
                -10.010009765625
            ],
            "type" : "VEC3"
        },
        {
            "bufferView" : 9,
            "componentType" : 5126,
            "count" : 4762,
            "type" : "VEC3"
        },
        {
            "bufferView" : 10,
            "componentType" : 5126,
            "count" : 4762,
            "type" : "VEC2"
        },
        {
            "bufferView" : 11,
            "componentType" : 5123,
            "count" : 19752,
            "type" : "SCALAR"
        }
    ],
    "bufferViews" : [
        {
            "buffer" : 0,
            "byteLength" : 37776,
            "byteOffset" : 0
        },
        {
            "buffer" : 0,
            "byteLength" : 37776,
            "byteOffset" : 37776
        },
        {
            "buffer" : 0,
            "byteLength" : 25184,
            "byteOffset" : 75552
        },
        {
            "buffer" : 0,
            "byteLength" : 29232,
            "byteOffset" : 100736
        },
        {
            "buffer" : 0,
            "byteLength" : 288,
            "byteOffset" : 129968
        },
        {
            "buffer" : 0,
            "byteLength" : 288,
            "byteOffset" : 130256
        },
        {
            "buffer" : 0,
            "byteLength" : 192,
            "byteOffset" : 130544
        },
        {
            "buffer" : 0,
            "byteLength" : 72,
            "byteOffset" : 130736
        },
        {
            "buffer" : 0,
            "byteLength" : 57144,
            "byteOffset" : 130808
        },
        {
            "buffer" : 0,
            "byteLength" : 57144,
            "byteOffset" : 187952
        },
        {
            "buffer" : 0,
            "byteLength" : 38096,
            "byteOffset" : 245096
        },
        {
            "buffer" : 0,
            "byteLength" : 39504,
            "byteOffset" : 283192
        }
    ],
    "buffers" : [
        {
            "byteLength" : 322696,
            "uri" : "escape.bin"
        }
    ]
}
